# xmcd
#
# Track frame offsets:
#	150
#	16725
#	28730
#	48572
#	59662
#	71610
#	88217
#	100682
#	113462
#	128582
#	142777
#	159805
#	180135
#	197705
#	212600
#	225590
#	239645
#	254240
#
# Disc length: 3596 seconds
# Revision: 0
# Processed by: cddbd v1.5.2PL0 Copyright (c) Steve Scherf et al.
# Submitted via: dBpowerAMP V12.0
#
DISCID=ed0e0a12
DTITLE=Various Artist - Legends of Gospel and Blues Vol. 2
DYEAR=1995
DGENRE=Gospel
TTITLE0=Roberta Kelly - Amazing Grace
TTITLE1=Golden Gate Quartett - Poor Little Jesus
TTITLE2=Mahalia Jackson - When I Wake Up in Glory
TTITLE3=Katie Webster - I Feel So Low
TTITLE4=Hooker, John Lee - Little Wheel
TTITLE5=Fitzgerald, Ella/Armstrong, Louis - Moonlight in Vermont
TTITLE6=Mahalia Jackson - He's Got the Whole World in
TTITLE7=Roberta Kelly - Soon I Will Be Done
TTITLE8=Sarah Vaughan - Lover Man
TTITLE9=Golden Gate Quartett - Swing Down Chariot
TTITLE10=Mahalia Jackson - Out of the Depths
TTITLE11=Katie Webster - Drift Away
TTITLE12=Munich Gospel Sound - I've Been Buk'd
TTITLE13=Roberta Kelly - The Old Rugged Cross
TTITLE14=King, B. B. - Please Love Me
TTITLE15=Muddy Waters - I Want You to Love Me
TTITLE16=Roberta Kelly - Encourage My Soul
TTITLE17=Mahalia Jackson - I'm on My Way
EXTD=
EXTT0=
EXTT1=
EXTT2=
EXTT3=
EXTT4=
EXTT5=
EXTT6=
EXTT7=
EXTT8=
EXTT9=
EXTT10=
EXTT11=
EXTT12=
EXTT13=
EXTT14=
EXTT15=
EXTT16=
EXTT17=
PLAYORDER=
